<svg width="31" height="35" viewBox="0 0 31 35" fill="none" xmlns="http://www.w3.org/2000/svg">
<path fill-rule="evenodd" clip-rule="evenodd" d="M30.2076 5.53998C30.2076 6.24105 29.9844 6.95148 29.42 7.36734C28.6795 7.91294 27.7643 8.2354 26.7736 8.2354H24.623C22.9662 8.2354 21.623 6.89225 21.623 5.2354V2.7452C21.623 2.2309 21.7101 1.73693 21.8704 1.27721C22.1741 0.405872 23.1074 0 24.0301 0H27.2076C28.8644 0 30.2076 1.34315 30.2076 3V5.53998ZM26.7736 8.92167C28.2265 8.92167 30.2076 9.91687 30.2076 11.3697V32C30.2076 33.6569 28.8644 35 27.2076 35H3.67724C2.02039 35 0.677246 33.6569 0.677246 32V3C0.677246 1.34315 2.02039 0 3.67725 0H18.8334C20.0901 0 20.9363 1.48854 20.9363 2.7452V5.92167C20.9363 7.57853 22.2794 8.92167 23.9363 8.92167H26.7736ZM2.73615 4.80397C2.73615 4.42495 3.04361 4.11769 3.4229 4.11769H17.1579C17.5372 4.11769 17.8447 4.42495 17.8447 4.80397C17.8447 5.18298 17.5372 5.49024 17.1579 5.49024H3.4229C3.04361 5.49024 2.73615 5.18298 2.73615 4.80397ZM2.73615 8.23534C2.73615 7.85632 3.04361 7.54906 3.4229 7.54906H17.1579C17.5372 7.54906 17.8447 7.85632 17.8447 8.23534C17.8447 8.61436 17.5372 8.92161 17.1579 8.92161H3.4229C3.04361 8.92161 2.73615 8.61436 2.73615 8.23534ZM3.4229 10.9804C3.04361 10.9804 2.73615 11.2877 2.73615 11.6667C2.73615 12.0457 3.04361 12.353 3.4229 12.353H27.4592C27.8385 12.353 28.1459 12.0457 28.1459 11.6667C28.1459 11.2877 27.8385 10.9804 27.4592 10.9804H3.4229ZM2.73615 15.0981C2.73615 14.7191 3.04361 14.4118 3.4229 14.4118H27.4592C27.8385 14.4118 28.1459 14.7191 28.1459 15.0981C28.1459 15.4771 27.8385 15.7844 27.4592 15.7844H3.4229C3.04361 15.7844 2.73615 15.4771 2.73615 15.0981ZM3.4229 17.8432C3.04361 17.8432 2.73615 18.1504 2.73615 18.5295C2.73615 18.9085 3.04361 19.2157 3.4229 19.2157H27.4592C27.8385 19.2157 28.1459 18.9085 28.1459 18.5295C28.1459 18.1504 27.8385 17.8432 27.4592 17.8432H3.4229ZM2.73615 21.9608C2.73615 21.5818 3.04361 21.2746 3.4229 21.2746H27.4592C27.8385 21.2746 28.1459 21.5818 28.1459 21.9608C28.1459 22.3398 27.8385 22.6471 27.4592 22.6471H3.4229C3.04361 22.6471 2.73615 22.3398 2.73615 21.9608ZM3.4229 24.7059C3.04361 24.7059 2.73615 25.0132 2.73615 25.3922C2.73615 25.7712 3.04361 26.0785 3.4229 26.0785H27.4592C27.8385 26.0785 28.1459 25.7712 28.1459 25.3922C28.1459 25.0132 27.8385 24.7059 27.4592 24.7059H3.4229ZM2.73615 28.8236C2.73615 28.4446 3.04361 28.1373 3.4229 28.1373H27.4592C27.8385 28.1373 28.1459 28.4446 28.1459 28.8236C28.1459 29.2026 27.8385 29.5098 27.4592 29.5098H3.4229C3.04361 29.5098 2.73615 29.2026 2.73615 28.8236ZM3.4229 31.5687C3.04361 31.5687 2.73615 31.8759 2.73615 32.2549C2.73615 32.634 3.04361 32.9412 3.4229 32.9412H27.4592C27.8385 32.9412 28.1459 32.634 28.1459 32.2549C28.1459 31.8759 27.8385 31.5687 27.4592 31.5687H3.4229Z" fill="#F8FAFD"/>
</svg>
